<svg width="19" height="19" viewBox="0 0 19 19" fill="none" xmlns="http://www.w3.org/2000/svg">
<path d="M15.23 12.74C15.365 12.8579 15.4745 13.002 15.5519 13.1636C15.6292 13.3253 15.6728 13.501 15.68 13.68C15.6882 14.0441 15.5515 14.3966 15.3 14.66C14.9745 14.9951 14.5839 15.2602 14.1523 15.439C13.7207 15.6179 13.2571 15.7067 12.79 15.7C10.76 15.7 8.46 14.18 6.64 12.37C4 9.72 2.01 6.06 4.35 3.71C4.47385 3.57807 4.62447 3.47413 4.79176 3.40514C4.95905 3.33616 5.13915 3.30372 5.31999 3.31C5.49483 3.31883 5.66617 3.36226 5.82409 3.43779C5.98202 3.51332 6.12338 3.61944 6.24 3.75L7.56 5.27C7.78109 5.53542 7.89625 5.87321 7.88333 6.21841C7.8704 6.56361 7.73031 6.89185 7.49 7.14L6.96 7.67C7 7.86 7.27 8.52 8.87 10.13C10.49 11.75 11.15 12 11.34 12.05L11.86 11.52C12.1052 11.2743 12.4343 11.1304 12.7812 11.1175C13.1281 11.1045 13.4671 11.2233 13.73 11.45L15.23 12.74ZM18.88 2.5V16.5C18.8784 17.1307 18.6272 17.7352 18.1812 18.1812C17.7352 18.6272 17.1307 18.8784 16.5 18.88H2.5C1.86927 18.8784 1.26482 18.6272 0.818831 18.1812C0.372837 17.7352 0.121579 17.1307 0.119995 16.5V2.5C0.121579 1.86927 0.372837 1.26483 0.818831 0.818835C1.26482 0.372841 1.86927 0.121583 2.5 0.119999H16.5C17.1307 0.121583 17.7352 0.372841 18.1812 0.818835C18.6272 1.26483 18.8784 1.86927 18.88 2.5V2.5ZM18.12 2.5C18.1209 2.287 18.0797 2.07592 17.9986 1.87896C17.9175 1.68199 17.7982 1.50304 17.6476 1.35242C17.497 1.2018 17.318 1.08251 17.121 1.00143C16.9241 0.920343 16.713 0.879073 16.5 0.879999H2.5C2.28699 0.879073 2.07592 0.920343 1.87895 1.00143C1.68199 1.08251 1.50303 1.2018 1.35242 1.35242C1.2018 1.50304 1.08251 1.68199 1.00142 1.87896C0.920339 2.07592 0.879069 2.287 0.879995 2.5V16.5C0.879069 16.713 0.920339 16.9241 1.00142 17.121C1.08251 17.318 1.2018 17.497 1.35242 17.6476C1.50303 17.7982 1.68199 17.9175 1.87895 17.9986C2.07592 18.0797 2.28699 18.1209 2.5 18.12H16.5C16.713 18.1209 16.9241 18.0797 17.121 17.9986C17.318 17.9175 17.497 17.7982 17.6476 17.6476C17.7982 17.497 17.9175 17.318 17.9986 17.121C18.0797 16.9241 18.1209 16.713 18.12 16.5V2.5Z" fill="black"/>
</svg>
