<svg width="19" height="19" viewBox="0 0 19 19" fill="none" xmlns="http://www.w3.org/2000/svg">
<path d="M9.41517 15.4213C9.6526 15.4213 10.4147 15.1047 11.5051 14.0964C13.2375 12.5018 15.2601 9.69951 15.2601 7.06138C15.2601 5.50188 14.6406 4.00626 13.5378 2.90353C12.4351 1.8008 10.9395 1.18129 9.37999 1.18129C7.8205 1.18129 6.32487 1.8008 5.22214 2.90353C4.11941 4.00626 3.49991 5.50188 3.49991 7.06138C3.49991 11.2062 8.32767 15.3334 9.41517 15.4213ZM9.37999 3.55854C9.93423 3.55854 10.476 3.72289 10.9369 4.03081C11.3977 4.33872 11.7569 4.77638 11.969 5.28843C12.1811 5.80048 12.2365 6.36392 12.1284 6.90751C12.0203 7.4511 11.7534 7.95041 11.3615 8.34232C10.9696 8.73422 10.4703 9.00112 9.92669 9.10924C9.3831 9.21737 8.81966 9.16187 8.30761 8.94978C7.79556 8.73768 7.3579 8.3785 7.04999 7.91767C6.74207 7.45684 6.57772 6.91505 6.57772 6.36081C6.57849 5.61784 6.87398 4.90552 7.39934 4.38016C7.9247 3.8548 8.63702 3.55931 9.37999 3.55854V3.55854ZM15.7701 15.9724C15.7701 16.5205 13.516 17.5846 9.37999 17.5846C5.244 17.5846 2.98987 16.5205 2.98987 15.9724C2.98987 15.606 4.04512 14.9259 6.39598 14.5742C6.43683 14.5677 6.4764 14.5549 6.51323 14.5361C7.61538 15.5767 8.69408 16.245 9.34482 16.2948H9.42689C10.3063 16.2948 11.5872 15.2132 12.1031 14.7383C12.1676 14.6797 12.2321 14.6152 12.2966 14.5507C12.3187 14.5579 12.3412 14.5638 12.364 14.5683C14.7149 14.9259 15.7701 15.606 15.7701 15.9724Z" fill="#222222"/>
</svg>
